<?xml version="1.0" encoding="UTF-8" standalone="no"?>
<svg
   width="1638.8545"
   height="637.33234"
   preserveAspectRatio="none"
   viewBox="0 0 1638.8545 637.33234"
   version="1.1"
   id="svg4"
   sodipodi:docname="gh_header.svg"
   inkscape:export-filename="C:\Users\zurdi\Downloads\gh_header.png"
   inkscape:export-xdpi="96"
   inkscape:export-ydpi="96"
   xml:space="preserve"
   xmlns:inkscape="http://www.inkscape.org/namespaces/inkscape"
   xmlns:sodipodi="http://sodipodi.sourceforge.net/DTD/sodipodi-0.dtd"
   xmlns="http://www.w3.org/2000/svg"
   xmlns:svg="http://www.w3.org/2000/svg"><sodipodi:namedview
     id="namedview4"
     pagecolor="#ffffff"
     bordercolor="#000000"
     borderopacity="0.25"
     inkscape:showpageshadow="2"
     inkscape:pageopacity="0.0"
     inkscape:pagecheckerboard="0"
     inkscape:deskcolor="#d1d1d1"><inkscape:page
       x="0"
       y="0"
       width="1638.8545"
       height="637.33234"
       id="page1"
       margin="0"
       bleed="0" /></sodipodi:namedview><g
     fill="none"
     mask="url(#a)"
     id="g3"
     transform="matrix(1.1380934,0,0,1.1380934,-9.2610648e-8,1.7278016e-6)"><path
       fill="#553e98"
       d="M 0,0 H 1440 V 560 H 0 Z"
       id="path1" /><path
       fill="#371f69"
       d="M -160.71316,662.45758 C -64.137604,673.92413 -191.3237,493.88766 -88.090947,472.18222 44.353956,444.33471 146.60324,354.18061 202.38153,251.88742 266.13732,136.79475 589.00399,104.71961 590.11634,-21.307896 633.76819,-163.008 252.10899,-396.71953 171.29377,-471.87578 109.16154,-39.359825 36.583725,-76.527831 -35.929126,-100.9989 c -72.512874,-24.47109 -136.918214,-36.34775 -201.063804,2.563307 -64.14556,38.911057 -120.18366,90.4165113 -159.94178,179.807706 -39.75814,89.391187 -47.28112,191.069177 -66.86793,292.900967 -23.47818,127.27691 -103.25425,255.27156 -70.4995,369.13383 32.75472,113.86229 153.26311,86.93041 217.99319,162.29174 33.98331,-432.15707 210.35547,-290.63336 298.888496,-279.06425"
       id="path2"
       style="stroke-width:1.01056"
       sodipodi:nodetypes="cscccssscscc" /><path
       fill="#ff9b85"
       d="m 1716.4169,1170.9349 c 100,30 230,40 310,-40 80,-80 30,-210.00009 70,-310.00009 35,-90 130,-150 140,-240 10,-100 -10,-220 -90,-290 -80,-70 -200,-40 -300,-60 -90,-20 -180,-60 -270,-30 -90,30 -109.6989,116.71685 -179.6989,176.71685 -70,70 -230.3011,113.28315 -240.3011,213.28315 -10,100 110,160 170,240 50,70 90,130 150,179.99999 70,60.0001 140,140.0001 230,160.0001"
       id="path3"
       sodipodi:nodetypes="csccscscsccc" /></g><defs
     id="defs4"><mask
       id="a"><path
         fill="#ffffff"
         d="M 0,0 H 1440 V 560 H 0 Z"
         id="path4" /></mask></defs><path
     d="M 377.24348,417.87722 V 219.73031 h 157.35796 q 11.28437,0 20.53213,5.50459 c 6.14678,3.66972 11.11929,8.6422 14.88074,14.88074 3.76144,6.23854 5.65138,13.04588 5.65138,20.38534 v 51.26609 c 0,7.35778 -1.88994,14.14678 -5.65138,20.38538 -3.76145,6.23845 -8.73396,11.21106 -14.88074,14.88066 -6.16515,3.6698 -12.99089,5.50459 -20.53213,5.50459 l -114.64231,0.2753 v 65.04594 H 377.24348 Z M 532.39961,309.56523 v -47.1193 H 419.95913 v 47.1193 z m -1.10087,108.31199 -57.59641,-68.62391 h 55.94495 l 45.74316,54.01841 v 14.6055 z m 97.00915,0 c -7.35783,0 -14.14682,-1.83481 -20.3853,-5.50457 -6.25695,-3.66974 -11.21103,-8.64221 -14.88075,-14.88078 -3.6697,-6.23853 -5.50457,-13.04583 -5.50457,-20.40366 V 260.24409 q 0,-11.2844 5.50457,-20.53212 c 3.66972,-6.14679 8.64223,-11.06422 14.88075,-14.75229 6.23848,-3.66974 13.04587,-5.50461 20.3853,-5.50461 H 745.152 q 11.00925,0 20.25691,5.50461 c 6.14681,3.66972 11.11928,8.58715 14.88078,14.75229 3.76149,6.16514 5.65138,12.99084 5.65138,20.53212 v 116.84412 c 0,7.35782 -1.88989,14.14682 -5.65138,20.40366 -3.7615,6.2569 -8.73397,11.21104 -14.88078,14.88078 q -9.24766,5.50457 -20.25691,5.50457 z M 742.67504,374.88639 V 262.44593 H 630.23449 v 112.44046 z m 57.04586,42.99083 V 219.45507 h 44.09176 l 67.24775,80.2019 66.97249,-80.2019 h 44.3669 v 198.42215 h -42.99073 v -133.101 l -68.34866,81.57805 -68.6239,-81.30281 v 132.82576 z m 239.211,0 V 219.45507 h 44.0919 l 67.2475,80.2019 66.9729,-80.2019 h 44.3665 v 198.42215 h -42.9908 v -133.101 l -68.3486,81.57805 -68.6239,-81.30281 v 132.82576 z"
     style="fill:#371f69;fill-opacity:1;stroke-width:1.83487"
     id="path1-0" /></svg>
