<?xml version="1.0" encoding="UTF-8" standalone="no"?>
<svg
   width="1600"
   height="300"
   preserveAspectRatio="none"
   viewBox="0 0 1600 300"
   version="1.1"
   id="svg4"
   sodipodi:docname="auth_background_static.svg"
   inkscape:export-filename="C:\Users\zurdi\Downloads\gh_header.svg"
   inkscape:export-xdpi="96"
   inkscape:export-ydpi="96"
   xmlns:inkscape="http://www.inkscape.org/namespaces/inkscape"
   xmlns:sodipodi="http://sodipodi.sourceforge.net/DTD/sodipodi-0.dtd"
   xmlns="http://www.w3.org/2000/svg"
   xmlns:svg="http://www.w3.org/2000/svg">
  <sodipodi:namedview
     id="namedview4"
     pagecolor="#ffffff"
     bordercolor="#000000"
     borderopacity="0.25"
     inkscape:showpageshadow="2"
     inkscape:pageopacity="0.0"
     inkscape:pagecheckerboard="0"
     inkscape:deskcolor="#d1d1d1">
    <inkscape:page
       x="0"
       y="0"
       width="1600"
       height="300"
       id="page2"
       margin="0"
       bleed="0" />
  </sodipodi:namedview>
  <g
     fill="none"
     mask="url(#a)"
     id="g3"
     transform="matrix(1.1380934,0,0,1.1380934,-19.427248,-168.66615)">
    <path
       fill="#553e98"
       d="M 0,0 H 1440 V 560 H 0 Z"
       id="path1" />
    <path
       fill="#371f69"
       d="M 59.993298,662.45758 C 212.45899,673.92413 287.20512,495.55187 400.86235,418.44746 514.51955,341.34308 679.47714,327.31323 767.53541,225.02004 868.18791,109.92737 943.13921,-43.05099 916.61791,-182.51219 890.09581,-321.97335 711.72361,-396.71953 584.13906,-471.87578 486.0497,-39.359825 371.4697,-76.527831 256.99226,-100.9989 142.51479,-125.46999 40.836828,-137.34665 -60.431062,-98.435593 -161.69889,-59.524536 -250.16732,-8.0190817 -312.93424,81.372113 c -62.76694,89.391187 -74.64362,191.069177 -105.5657,292.900967 -37.06545,127.27691 -163.00947,255.27156 -111.29892,369.13383 51.71051,113.86229 241.95943,86.93041 344.15006,162.29174 53.65012,-432.15707 105.873288,-254.81018 245.642098,-243.24107"
       id="path2"
       style="stroke-width:1.26974" />
    <path
       fill="#ff9b85"
       d="m 1606.7084,1159.7401 c 100,30 230,40 310,-40 80,-80 30,-210.00003 70,-310.00003 35,-90 130,-150 140,-240 10,-100 -10,-220 -90,-290 -80,-70 -200,-40 -300,-60 -90,-20 -180,-60 -270,-30 -90,30 -150,110 -220,170 -70,70 -190,120 -200,220 -10,100 110,160 170,240 50,70 90,130 150,180 70,60.00003 140,140.00003 230,160.00003"
       id="path3" />
  </g>
  <defs
     id="defs4">
    <mask
       id="a">
      <path
         fill="#ffffff"
         d="M 0,0 H 1440 V 560 H 0 Z"
         id="path4" />
    </mask>
  </defs>
  <path
     fill="#553e98"
     d="m 488.30013,220.26137 h 43.91396 c 2.4594,0 4.39554,-2.10534 4.39554,-4.56653 v -41.10563 a 4.3432533,4.3432533 0 0 1 4.38694,-4.38866 h 26.34727 c 2.45943,0 4.39561,1.92921 4.39561,4.38866 v 41.27661 c 0,2.4594 1.92744,4.39555 4.38859,4.39555 h 43.91222 c 2.45942,0 4.39558,-2.10534 4.39558,-4.56653 v -43.38893 c 0,-10.36097 -7.55623,-17.91895 -17.92072,-17.91895 h -1.58037 a 4.3432533,4.3432533 0 0 1 -4.38682,-4.38851 c 0,-2.45952 1.92744,-4.3957 4.38682,-4.3957 h 1.58037 c 10.36449,0 17.92072,-7.54744 17.92072,-17.91194 v -19.32138 c 0,-16.509626 -12.12277,-28.630636 -28.63057,-28.630636 H 488.30013 a 4.3432533,4.3432533 0 0 0 -4.38859,4.38861 V 215.86751 c 0,2.45948 1.92918,4.39562 4.38859,4.39562 m 52.69462,-90.46528 a 4.3432533,4.3432533 0 0 1 -4.38682,-4.38687 c 0,-2.45939 1.9292,-4.39557 4.38864,-4.39557 h 26.34727 c 2.45943,0 4.39561,1.93618 4.39561,4.39557 0,2.45944 -1.93618,4.38687 -4.39561,4.38687 z m 127.99868,90.46352 h 42.50809 c 20.72721,0 35.83269,-15.10545 35.83269,-35.83273 v -68.85887 c 0,-20.727236 -15.10548,-35.832676 -35.83269,-35.832676 h -42.50809 c -20.72727,0 -35.83446,15.10544 -35.83446,35.832676 v 68.85887 c 0,20.72728 15.10545,35.83273 35.83273,35.83273 m 21.25055,-40.39748 a 4.3484861,4.3484861 0 0 1 -4.3886,-4.39559 v -50.93815 c 0,-2.45943 1.92915,-4.39561 4.3886,-4.39561 2.45941,0 4.39555,1.93618 4.39555,4.39561 v 50.93815 c 0,2.45942 -1.93614,4.39559 -4.39555,4.39559 m 70.39209,40.39748 h 43.736 c 2.45946,0 4.39562,-1.93615 4.39562,-4.39555 v -78.16464 a 4.3432533,4.3432533 0 0 1 4.38685,-4.38858 c 2.45946,0 4.3956,1.9274 4.3956,4.38858 v 78.5187 c 0,2.28326 2.10532,4.04149 4.38857,4.04149 h 43.91223 c 2.28327,0 4.39558,-1.75823 4.39558,-4.04149 v -78.5187 a 4.3432533,4.3432533 0 0 1 4.38684,-4.38858 c 2.45944,0 4.3956,1.9274 4.3956,4.38858 v 78.16464 c 0,2.4594 2.10536,4.39555 4.56476,4.39555 h 43.73602 c 2.45945,0 4.39562,-1.93615 4.39562,-4.39555 V 84.125674 c 0,-2.45941 -2.11234,-4.38858 -4.5648,-4.38858 h -74.48068 c -2.45943,0 -4.39383,2.10531 -4.39383,4.56472 v 24.419936 a 4.3432533,4.3432533 0 0 1 -4.38856,4.38858 c -2.45944,0 -4.39561,-1.93612 -4.39561,-4.38858 V 84.125674 c 0,-2.45941 -2.10359,-4.38858 -4.56306,-4.38858 h -74.48068 a 4.3432533,4.3432533 0 0 0 -4.38686,4.38858 V 215.86582 c 0,2.4594 2.10537,4.39555 4.56479,4.39555 m 184.36497,0 h 43.73607 c 2.45941,0 4.39552,-1.93615 4.39552,-4.39555 v -78.16464 a 4.3432533,4.3432533 0 0 1 4.38683,-4.38858 c 2.45944,0 4.39557,1.9274 4.39557,4.38858 v 78.5187 c 0,2.28326 2.1054,4.04149 4.387,4.04149 h 43.9138 c 2.2833,0 4.3955,-1.75823 4.3955,-4.04149 v -78.5187 a 4.3432533,4.3432533 0 0 1 4.3874,-4.38858 c 2.459,0 4.395,1.9274 4.395,4.38858 v 78.16464 c 0,2.4594 2.1056,4.39555 4.5649,4.39555 h 43.7361 c 2.4594,0 4.3957,-1.93615 4.3957,-4.39555 V 84.125674 c 0,-2.45941 -2.1124,-4.38858 -4.5665,-4.38858 h -74.479 c -2.4595,0 -4.3958,2.10531 -4.3958,4.56472 v 24.419936 a 4.3432533,4.3432533 0 0 1 -4.3869,4.38858 c -2.4594,0 -4.3955,-1.93612 -4.3955,-4.38858 V 84.125674 c 0,-2.45941 -2.1035,-4.38858 -4.5646,-4.38858 h -74.479 a 4.3432533,4.3432533 0 0 0 -4.3868,4.38858 V 215.86582 c 0,2.4594 2.10528,4.39555 4.56471,4.39555 m 0,0"
     id="path1-0"
     style="stroke:#000000;stroke-width:1.806;stroke-dasharray:none;stroke-opacity:1" />
</svg>
