<?xml version="1.0" encoding="UTF-8" standalone="no"?>
<svg
   width="1600"
   height="300"
   preserveAspectRatio="none"
   viewBox="0 0 1600 300"
   version="1.1"
   id="svg4"
   sodipodi:docname="gh_header.svg"
   inkscape:export-filename="C:\Users\zurdi\Downloads\gh_header.svg"
   inkscape:export-xdpi="96"
   inkscape:export-ydpi="96"
   xml:space="preserve"
   xmlns:inkscape="http://www.inkscape.org/namespaces/inkscape"
   xmlns:sodipodi="http://sodipodi.sourceforge.net/DTD/sodipodi-0.dtd"
   xmlns="http://www.w3.org/2000/svg"
   xmlns:svg="http://www.w3.org/2000/svg"><sodipodi:namedview
     id="namedview4"
     pagecolor="#ffffff"
     bordercolor="#000000"
     borderopacity="0.25"
     inkscape:showpageshadow="2"
     inkscape:pageopacity="0.0"
     inkscape:pagecheckerboard="0"
     inkscape:deskcolor="#d1d1d1"><inkscape:page
       x="0"
       y="0"
       width="1600"
       height="300"
       id="page2"
       margin="0"
       bleed="0" /></sodipodi:namedview><g
     fill="none"
     mask="url(#a)"
     id="g3"
     transform="matrix(1.1380934,0,0,1.1380934,-19.427248,-218.66615)"><path
       fill="#553e98"
       d="M 0,0 H 1440 V 560 H 0 Z"
       id="path1" /><path
       fill="#371f69"
       d="M 25.119568,734.10394 C 121.69512,745.57049 -182.36791,561.05612 -79.135151,539.35068 53.309755,511.50317 224.96644,445.9775 271.78893,330.25062 315.39419,203.96321 566.61451,142.78174 661.7627,43.621611 705.41455,-98.07849 437.94172,-325.07317 357.1265,-400.22942 294.99427,32.286528 222.41646,-4.8814783 149.9036,-29.352547 77.390728,-53.823637 12.985388,-65.700297 -51.160201,-26.78924 -115.30576,12.121817 -171.34386,63.627271 -211.10198,153.01847 c -39.75814,89.39119 -47.28112,191.06918 -66.86793,292.90097 -23.47818,127.27691 -103.25425,255.27156 -70.4995,369.13383 32.75472,113.86229 153.26311,86.93041 217.99319,162.29174 C -96.492911,545.18794 79.879248,686.71165 168.41227,698.28076"
       id="path2"
       style="stroke-width:1.01056"
       sodipodi:nodetypes="cscccssscscc" /><path
       fill="#ff9b85"
       d="m 1629.0979,1200.0412 c 100,30 230,40 310,-40 80,-80 30,-210.00006 70,-310.00006 35,-90 130,-150 140,-240 10,-100 -10,-220 -90,-290 -80,-70 -200,-40 -300,-60 -90,-20 -180,-60 -270,-30 -90,30 -109.6989,116.71685 -179.6989,176.71685 -70,70 -230.3011,113.28315 -240.3011,213.28315 -10,100 110,160 170,240 50,70 90,130 150,179.99996 70,60.0001 140,140.0001 230,160.0001"
       id="path3"
       sodipodi:nodetypes="csccscscsccc" /></g><defs
     id="defs4"><mask
       id="a"><path
         fill="#ffffff"
         d="M 0,0 H 1440 V 560 H 0 Z"
         id="path4" /></mask></defs><path
     d="M 449.07676,228.73534 V 71.483107 h 124.8815 q 8.95546,0 16.29464,4.368522 c 4.87816,2.912345 8.8244,6.858574 11.80956,11.809562 2.98514,4.950997 4.48502,10.3534 4.48502,16.178099 v 40.68549 c 0,5.83924 -1.49988,11.22711 -4.48502,16.17814 -2.98516,4.9509 -6.93141,8.89729 -11.80956,11.80949 -4.89276,2.91243 -10.30978,4.36853 -16.29464,4.36853 l -90.98176,0.21848 v 51.6214 H 449.07676 Z M 572.21088,142.77739 V 105.38283 H 482.9765 v 37.39456 z m -0.87367,85.95795 -45.70932,-54.46091 h 44.3987 l 36.30243,42.86976 v 11.59115 z m 76.98786,0 c -5.8393,0 -11.22714,-1.45615 -16.17807,-4.3685 -4.9656,-2.91238 -8.89722,-6.8586 -11.80959,-11.80963 -2.91234,-4.95098 -4.3685,-10.35334 -4.3685,-16.19262 v -92.72917 q 0,-8.95546 4.3685,-16.29458 c 2.91237,-4.87818 6.85863,-8.780731 11.80959,-11.707633 4.95093,-2.912353 10.35339,-4.368532 16.17807,-4.368532 h 92.72913 q 8.73711,0 16.07619,4.368532 c 4.87818,2.912343 8.82442,6.814885 11.80961,11.707633 2.98516,4.892737 4.48501,10.309711 4.48501,16.29458 v 92.72917 c 0,5.83927 -1.49985,11.22711 -4.48501,16.19262 -2.98519,4.96554 -6.93143,8.89725 -11.80961,11.80963 q -7.33908,4.3685 -16.07619,4.3685 z m 90.76339,-34.11814 v -89.23437 h -89.2344 v 89.23437 z m 45.27242,34.11814 V 71.264675 h 34.99183 l 53.36879,63.649385 53.15031,-63.649385 h 35.21024 V 228.73534 H 926.96398 V 123.10449 l -54.24248,64.74152 -54.46089,-64.52307 v 105.4124 z m 189.84115,0 V 71.264675 h 34.99197 l 53.3688,63.649385 53.1507,-63.649385 h 35.2098 V 228.73534 h -34.1182 V 123.10449 l -54.2423,64.74152 -54.4611,-64.52307 v 105.4124 z"
     style="fill:#371f69;fill-opacity:1;stroke-width:1.45619"
     id="path1-0" /></svg>
